# xmcd CD database file
#
# Track frame offsets:
#	183
#	29385
#	46350
#	77208
#	92778
#	105795
#	124345
#	160938
#	175318
#	186345
#	213268
#	230980
#	248720
#	266475
#	297333
#
# Disc length: 4196 seconds
#
# Revision: 0
# Processed by: cddbd v1.4PL0 Copyright (c) Steve Scherf et al.
# Submitted via: CDex 1.50beta10
#
DISCID=d410620f
DTITLE=Boogie Brothers - Cant Get Enough
DYEAR=1900
DGENRE=Blues
TTITLE0=Everybody Needs Somebody and Flip Flop Fly
TTITLE1=wotchagot
TTITLE2=Sweet Soul Musics and Can't Turn You Loose
TTITLE3=Dance The Night Away
TTITLE4=Do You Love Me
TTITLE5=So High
TTITLE6=Sam And Dave Medley
TTITLE7=Son Of A Preacher Man
TTITLE8=I Aint Got You
TTITLE9=Shake Your Tail Feather
TTITLE10=Together We're Strong
TTITLE11=Knock On Wood
TTITLE12=Minnie The Moocher
TTITLE13=Going Back To Miami
TTITLE14=Cant Get Enough Of Your Love
EXTD=
EXTT0=
EXTT1=
EXTT2=
EXTT3=
EXTT4=
EXTT5=
EXTT6=
EXTT7=
EXTT8=
EXTT9=
EXTT10=
EXTT11=
EXTT12=
EXTT13=
EXTT14=
PLAYORDER=
